<svg width="512" height="512" viewBox="0 0 512 512" xmlns="http://www.w3.org/2000/svg">
  <defs>
    <filter id="gear-shadow" x="-25%" y="-25%" width="150%" height="150%">
      <feDropShadow dx="0" dy="5" stdDeviation="6" flood-color="#000000" flood-opacity="0.4"/>
    </filter>
  </defs>
  <rect x="0.000" y="0" width="73.143" height="512" fill="#000000"/>
  <rect x="73.143" y="0" width="73.143" height="512" fill="#ffffff"/>
  <rect x="146.286" y="0" width="73.143" height="512" fill="#000000"/>
  <rect x="219.429" y="0" width="73.143" height="512" fill="#ffffff"/>
  <rect x="292.571" y="0" width="73.143" height="512" fill="#000000"/>
  <rect x="365.714" y="0" width="73.143" height="512" fill="#ffffff"/>
  <rect x="438.857" y="0" width="73.143" height="512" fill="#000000"/>
  <path d="M235.351 125.625 L253.989 64.011 L258.011 64.011 L276.649 125.625 L303.305 132.767 L350.254 88.727 L353.736 90.738 L339.070 153.417 L358.583 172.930 L421.262 158.264 L423.273 161.746 L379.233 208.695 L386.375 235.351 L447.989 253.989 L447.989 258.011 L386.375 276.649 L379.233 303.305 L423.273 350.254 L421.262 353.736 L358.583 339.070 L339.070 358.583 L353.736 421.262 L350.254 423.273 L303.305 379.233 L276.649 386.375 L258.011 447.989 L253.989 447.989 L235.351 386.375 L208.695 379.233 L161.746 423.273 L158.264 421.262 L172.930 358.583 L153.417 339.070 L90.738 353.736 L88.727 350.254 L132.767 303.305 L125.625 276.649 L64.011 258.011 L64.011 253.989 L125.625 235.351 L132.767 208.695 L88.727 161.746 L90.738 158.264 L153.417 172.930 L172.930 153.417 L158.264 90.738 L161.746 88.727 L208.695 132.767 Z M 212 192 L 300 192 A 20 20 0 0 1 320 212 L 320 300 A 20 20 0 0 1 300 320 L 212 320 A 20 20 0 0 1 192 300 L 192 212 A 20 20 0 0 1 212 192 Z" fill="#00563a" stroke="#00563a" stroke-width="20" stroke-linejoin="round" fill-rule="evenodd" filter="url(#gear-shadow)"/>
  <path d="M235.351 125.625 L253.989 64.011 L258.011 64.011 L276.649 125.625 L303.305 132.767 L350.254 88.727 L353.736 90.738 L339.070 153.417 L358.583 172.930 L421.262 158.264 L423.273 161.746 L379.233 208.695 L386.375 235.351 L447.989 253.989 L447.989 258.011 L386.375 276.649 L379.233 303.305 L423.273 350.254 L421.262 353.736 L358.583 339.070 L339.070 358.583 L353.736 421.262 L350.254 423.273 L303.305 379.233 L276.649 386.375 L258.011 447.989 L253.989 447.989 L235.351 386.375 L208.695 379.233 L161.746 423.273 L158.264 421.262 L172.930 358.583 L153.417 339.070 L90.738 353.736 L88.727 350.254 L132.767 303.305 L125.625 276.649 L64.011 258.011 L64.011 253.989 L125.625 235.351 L132.767 208.695 L88.727 161.746 L90.738 158.264 L153.417 172.930 L172.930 153.417 L158.264 90.738 L161.746 88.727 L208.695 132.767 Z M 212 192 L 300 192 A 20 20 0 0 1 320 212 L 320 300 A 20 20 0 0 1 300 320 L 212 320 A 20 20 0 0 1 192 300 L 192 212 A 20 20 0 0 1 212 192 Z" fill="#009669" fill-rule="evenodd" fill-opacity="1"/>
</svg>
