<svg width="512" height="512" viewBox="0 0 512 512" xmlns="http://www.w3.org/2000/svg">
  <defs>
    <filter id="gear-shadow" x="-25%" y="-25%" width="150%" height="150%">
      <feDropShadow dx="0" dy="5" stdDeviation="6" flood-color="#000000" flood-opacity="0.4"/>
    </filter>
  </defs>
  <rect x="0.000" y="0" width="73.143" height="512" fill="#000000"/>
  <rect x="73.143" y="0" width="73.143" height="512" fill="#ffffff"/>
  <rect x="146.286" y="0" width="73.143" height="512" fill="#000000"/>
  <rect x="219.429" y="0" width="73.143" height="512" fill="#ffffff"/>
  <rect x="292.571" y="0" width="73.143" height="512" fill="#000000"/>
  <rect x="365.714" y="0" width="73.143" height="512" fill="#ffffff"/>
  <rect x="438.857" y="0" width="73.143" height="512" fill="#000000"/>
  <path d="M218.182 98.476 L230.933 57.577 L281.067 57.577 L293.818 98.476 L340.645 117.872 L378.581 97.969 L414.031 133.419 L394.128 171.355 L413.524 218.182 L454.423 230.933 L454.423 281.067 L413.524 293.818 L394.128 340.645 L414.031 378.581 L378.581 414.031 L340.645 394.128 L293.818 413.524 L281.067 454.423 L230.933 454.423 L218.182 413.524 L171.355 394.128 L133.419 414.031 L97.969 378.581 L117.872 340.645 L98.476 293.818 L57.577 281.067 L57.577 230.933 L98.476 218.182 L117.872 171.355 L97.969 133.419 L133.419 97.969 L171.355 117.872 Z M 184 256 A 72 72 0 1 0 328 256 A 72 72 0 1 0 184 256 Z" fill="#009669" fill-rule="evenodd" fill-opacity="1" filter="url(#gear-shadow)"/>
</svg>
