<svg width="512" height="512" viewBox="0 0 512 512" xmlns="http://www.w3.org/2000/svg">
  <defs>
    <filter id="gear-shadow" x="-25%" y="-25%" width="150%" height="150%">
      <feDropShadow dx="0" dy="5" stdDeviation="6" flood-color="#000000" flood-opacity="0.4"/>
    </filter>
  </defs>
  <rect x="0.000" y="0" width="73.143" height="512" fill="#27272a"/>
  <rect x="73.143" y="0" width="73.143" height="512" fill="#ffffff"/>
  <rect x="146.286" y="0" width="73.143" height="512" fill="#27272a"/>
  <rect x="219.429" y="0" width="73.143" height="512" fill="#ffffff"/>
  <rect x="292.571" y="0" width="73.143" height="512" fill="#27272a"/>
  <rect x="365.714" y="0" width="73.143" height="512" fill="#ffffff"/>
  <rect x="438.857" y="0" width="73.143" height="512" fill="#27272a"/>
  <path d="M238.792 147.354 L249.771 86.114 L262.229 86.114 L273.208 147.354 L295.420 153.306 L335.548 105.760 L346.338 111.989 L325.225 170.514 L341.486 186.775 L400.011 165.662 L406.240 176.452 L358.694 216.580 L364.646 238.792 L425.886 249.771 L425.886 262.229 L364.646 273.208 L358.694 295.420 L406.240 335.548 L400.011 346.338 L341.486 325.225 L325.225 341.486 L346.338 400.011 L335.548 406.240 L295.420 358.694 L273.208 364.646 L262.229 425.886 L249.771 425.886 L238.792 364.646 L216.580 358.694 L176.452 406.240 L165.662 400.011 L186.775 341.486 L170.514 325.225 L111.989 346.338 L105.760 335.548 L153.306 295.420 L147.354 273.208 L86.114 262.229 L86.114 249.771 L147.354 238.792 L153.306 216.580 L105.760 176.452 L111.989 165.662 L170.514 186.775 L186.775 170.514 L165.662 111.989 L176.452 105.760 L216.580 153.306 Z M 226 210 L 286 210 A 16 16 0 0 1 302 226 L 302 286 A 16 16 0 0 1 286 302 L 226 302 A 16 16 0 0 1 210 286 L 210 226 A 16 16 0 0 1 226 210 Z" fill="#00563a" stroke="#00563a" stroke-width="20" stroke-linejoin="round" fill-rule="evenodd" filter="url(#gear-shadow)"/>
  <path d="M238.792 147.354 L249.771 86.114 L262.229 86.114 L273.208 147.354 L295.420 153.306 L335.548 105.760 L346.338 111.989 L325.225 170.514 L341.486 186.775 L400.011 165.662 L406.240 176.452 L358.694 216.580 L364.646 238.792 L425.886 249.771 L425.886 262.229 L364.646 273.208 L358.694 295.420 L406.240 335.548 L400.011 346.338 L341.486 325.225 L325.225 341.486 L346.338 400.011 L335.548 406.240 L295.420 358.694 L273.208 364.646 L262.229 425.886 L249.771 425.886 L238.792 364.646 L216.580 358.694 L176.452 406.240 L165.662 400.011 L186.775 341.486 L170.514 325.225 L111.989 346.338 L105.760 335.548 L153.306 295.420 L147.354 273.208 L86.114 262.229 L86.114 249.771 L147.354 238.792 L153.306 216.580 L105.760 176.452 L111.989 165.662 L170.514 186.775 L186.775 170.514 L165.662 111.989 L176.452 105.760 L216.580 153.306 Z M 226 210 L 286 210 A 16 16 0 0 1 302 226 L 302 286 A 16 16 0 0 1 286 302 L 226 302 A 16 16 0 0 1 210 286 L 210 226 A 16 16 0 0 1 226 210 Z" fill="#009669" fill-rule="evenodd" fill-opacity="1"/>
</svg>
